<svg width="200" height="50" viewBox="0 0 200 50" fill="none" xmlns="http://www.w3.org/2000/svg">
<path d="M21.3412 15.2736L30.3073 20.6154C29.5894 22.0158 28.523 23.2118 27.4029 24.2982L23.9765 26.6005L40.7758 21.0875C43.33 27.5993 41.9846 35.4057 37.9153 41.0026C31.9316 49.2327 21.1817 52.2771 11.7677 48.0978C6.22244 45.6361 1.49767 40.4227 0 34.5068L20.8136 27.7858C20.8397 27.5367 20.5377 27.6806 20.3922 27.6938C19.9252 27.736 19.3508 27.8946 18.9028 27.9177C7.18277 28.5236 -0.232357 16.3474 5.53522 6.18253L19.1018 13.9536C16.3619 11.1978 15.7096 7.20398 17.9405 3.90139C21.0061 -0.636103 27.9918 -0.362906 30.7169 4.38145C34.3631 10.7292 28.075 17.8577 21.3412 15.2736Z" fill="#FF6704"/>
<path d="M62.0982 34.4337C68.3548 34.4337 67.643 27.128 62.2105 26.9406C61.9486 26.9406 61.6487 26.9783 61.349 26.9783C60.4996 26.9783 59.5841 26.8617 58.7016 26.6174C58.0525 26.438 57.4151 26.9473 57.4151 27.6205V33.4076C57.4151 33.9743 57.8747 34.4337 58.4414 34.4337H62.0982ZM57.4151 20.9389C57.4151 21.2483 57.551 21.5461 57.7934 21.7384C58.7996 22.5357 60.1913 22.857 61.349 22.857C64.3835 22.857 65.6573 21.1336 65.62 19.4852C65.5826 17.9492 64.5335 16.4506 61.349 16.4506H58.4414C57.8747 16.4506 57.4151 16.91 57.4151 17.4768V20.9389ZM52.9194 13.3558C52.9194 12.789 53.3788 12.3294 53.9455 12.3294H61.2364C68.1676 12.3294 70.1533 16.3007 70.1156 19.5228C70.0849 21.1058 69.565 22.7144 68.4929 24.0296C68.1384 24.464 68.1851 25.0956 68.6086 25.4626C70.2441 26.8794 71.2397 28.7557 71.2397 30.6873C71.2397 35.1455 67.9426 38.5547 61.0867 38.5547H53.9455C53.3788 38.5547 52.9194 38.0953 52.9194 37.5286V13.3558Z" fill="white"/>
<path d="M83.4019 34.6949C86.474 34.6949 88.01 31.96 88.0477 29.2254C88.1224 25.5537 85.6496 23.7928 83.1022 23.7554C80.4421 23.7177 77.7071 25.5911 77.7071 29.1502C77.7071 31.8853 79.5805 34.6949 83.4019 34.6949ZM91.9708 38.5915H88.2453C88.0326 38.5915 87.8601 38.419 87.8601 38.206C87.8601 37.9154 87.5533 37.7347 87.2947 37.8674C85.9494 38.5584 84.389 38.8164 82.9146 38.8164C76.396 38.8164 73.174 34.058 73.2113 29.1878C73.2489 22.8563 78.3067 19.5592 83.2146 19.5592C87.8601 19.5592 92.356 22.1817 92.356 28.3636V38.206C92.356 38.419 92.1836 38.5915 91.9708 38.5915Z" fill="white"/>
<path d="M95.6934 9.98874H98.1352C98.7025 9.98874 99.1621 10.4484 99.1621 11.0156V37.098C99.1621 37.6653 98.7025 38.125 98.1352 38.125H95.6934C95.1261 38.125 94.6665 37.6653 94.6665 37.098V11.0156C94.6665 10.4484 95.1261 9.98874 95.6934 9.98874Z" fill="white"/>
<path d="M114.838 26.7909C115.619 26.7909 116.041 25.878 115.54 25.2794C114.673 24.2457 113.39 23.5691 111.741 23.5691C109.931 23.5691 108.566 24.2475 107.649 25.2592C107.115 25.8472 107.539 26.7909 108.333 26.7909H114.838ZM120.023 31.9987C120.67 31.9987 121.123 32.6544 120.878 33.253C119.587 36.4145 116.62 38.8545 111.741 38.8545C104.848 38.8545 101.812 34.0217 101.812 29.1511C101.812 24.2807 104.848 19.4475 111.741 19.4475C118.26 19.4475 121.295 24.2807 121.295 29.1511C121.295 29.3332 121.282 29.5216 121.265 29.7109C121.223 30.1804 120.824 30.5372 120.352 30.5372H107.681C107.012 30.5372 106.55 31.238 106.847 31.8368C107.665 33.4865 109.283 34.7335 111.741 34.7335C113.888 34.7335 115.446 33.7721 116.331 32.4138C116.499 32.1549 116.786 31.9987 117.095 31.9987H120.023Z" fill="white"/>
<path d="M141.046 28.4394V37.6365C141.046 38.1435 140.635 38.5547 140.128 38.5547H137.468C136.961 38.5547 136.55 38.1435 136.55 37.6365V27.8022C136.55 25.3296 134.827 23.6812 132.391 23.6812C129.956 23.6812 128.233 25.3296 128.233 27.8022V37.6365C128.233 38.1435 127.822 38.5547 127.314 38.5547H124.655C124.148 38.5547 123.737 38.1435 123.737 37.6365V28.4394C123.737 22.8946 126.884 19.5599 132.391 19.5599C137.899 19.5599 141.046 22.8946 141.046 28.4394Z" fill="white"/>
<path d="M156.845 35.0149L157.988 37.0936C158.292 37.6467 157.976 38.3419 157.356 38.4646C156.093 38.7146 154.458 38.8545 153.283 38.8545C146.389 38.8545 143.354 34.0217 143.354 29.1509C143.354 24.2806 146.389 19.4475 153.283 19.4475C154.458 19.4475 156.093 19.5871 157.356 19.8375C157.976 19.9601 158.292 20.6553 157.988 21.2085L156.845 23.2871C156.654 23.6331 156.269 23.8237 155.879 23.7617C155.072 23.6329 153.877 23.5688 153.283 23.5688C146.014 23.5688 146.014 34.7333 153.283 34.7333C153.877 34.7333 155.072 34.6688 155.879 34.5404C156.269 34.4784 156.654 34.6688 156.845 35.0149Z" fill="white"/>
<path d="M161.714 19.8225H164.318C164.84 19.8225 165.264 20.2462 165.264 20.7686V37.6086C165.264 38.1311 164.84 38.5547 164.318 38.5547H161.714C161.192 38.5547 160.768 38.1311 160.768 37.6086V20.7686C160.768 20.2462 161.192 19.8225 161.714 19.8225Z" fill="white"/>
<path d="M178.071 34.6949C181.143 34.6949 182.68 31.96 182.717 29.2254C182.792 25.5537 180.319 23.7928 177.772 23.7554C175.111 23.7177 172.377 25.5911 172.377 29.1502C172.377 31.8853 174.25 34.6949 178.071 34.6949ZM186.64 38.5915H182.915C182.702 38.5915 182.53 38.419 182.53 38.206C182.53 37.9154 182.223 37.7347 181.964 37.8674C180.619 38.5584 179.058 38.8164 177.584 38.8164C171.065 38.8164 167.843 34.058 167.881 29.1878C167.918 22.8563 172.976 19.5592 177.884 19.5592C182.53 19.5592 187.025 22.1817 187.025 28.3636V38.206C187.025 38.419 186.853 38.5915 186.64 38.5915Z" fill="white"/>
<path d="M195.546 36.1543C195.546 37.8111 194.203 39.1543 192.546 39.1543C190.889 39.1543 189.546 37.8111 189.546 36.1543C189.546 34.4975 190.889 33.1543 192.546 33.1543C194.203 33.1543 195.546 34.4975 195.546 36.1543Z" fill="#FF6704"/>
</svg>
