<svg width="204" height="239" viewBox="0 0 204 239" fill="none" xmlns="http://www.w3.org/2000/svg">
<path d="M103.292 70.7542L146.687 96.6086C143.212 103.387 138.051 109.175 132.63 114.433L116.046 125.576L197.355 98.8936C209.717 130.411 203.206 168.194 183.51 195.283C154.549 235.116 102.52 249.851 56.9557 229.623C30.1166 217.709 7.24872 192.476 0 163.843L100.738 131.313C100.864 130.108 99.4024 130.804 98.6984 130.868C96.4378 131.072 93.658 131.84 91.4897 131.952C34.7646 134.884 -1.12461 75.9514 26.7904 26.7536L92.4529 64.3657C79.1915 51.0276 76.0344 31.6974 86.8322 15.7129C101.67 -6.24858 135.48 -4.9263 148.67 18.0364C166.318 48.7594 135.883 83.2615 103.292 70.7542Z" fill="#040201"/>
</svg>
