<svg width="34" height="34" viewBox="0 0 34 34" fill="none" xmlns="http://www.w3.org/2000/svg">
<g clip-path="url(#clip0_2846_16974)">
<mask id="mask0_2846_16974" style="mask-type:luminance" maskUnits="userSpaceOnUse" x="0" y="0" width="34" height="34">
<path d="M0 0H34V34H0V0Z" fill="white"/>
</mask>
<g mask="url(#mask0_2846_16974)">
<path d="M19.5158 2.482C19.5158 3.85277 18.4045 4.964 17.0338 4.964C15.663 4.964 14.5518 3.85277 14.5518 2.482C14.5518 1.11123 15.663 0 17.0338 0C18.4045 0 19.5158 1.11123 19.5158 2.482Z" fill="#059669"/>
<path fill-rule="evenodd" clip-rule="evenodd" d="M17.034 4.96399H12.784C9.05366 4.96399 5.88905 7.38642 4.7775 10.744H4.624C2.07023 10.744 0 12.8142 0 15.368C0 17.9217 2.07023 19.992 4.624 19.992H4.73376C5.80401 23.4199 9.00347 25.908 12.784 25.908H21.284C25.0645 25.908 28.264 23.4199 29.3342 19.992H29.376C31.9297 19.992 34 17.9217 34 15.368C34 12.8142 31.9297 10.744 29.376 10.744H29.2905C28.1789 7.38642 25.0143 4.96399 21.284 4.96399H17.034ZM25.2747 14.824C25.2747 16.5673 23.8613 17.9806 22.118 17.9806C20.3746 17.9806 18.9613 16.5673 18.9613 14.824C18.9613 13.0806 20.3746 11.6673 22.118 11.6673C23.8613 11.6673 25.2747 13.0806 25.2747 14.824ZM11.8606 17.9806C13.604 17.9806 15.0173 16.5673 15.0173 14.824C15.0173 13.0806 13.604 11.6673 11.8606 11.6673C10.1173 11.6673 8.704 13.0806 8.704 14.824C8.704 16.5673 10.1173 17.9806 11.8606 17.9806Z" fill="#059669"/>
<path d="M6.11426 34C8.15143 30.0426 12.2766 27.336 17.0341 27.336C21.7915 27.336 25.9167 30.0426 27.9538 34H6.11426Z" fill="#059669"/>
</g>
</g>
<defs>
<clipPath id="clip0_2846_16974">
<rect width="34" height="34" fill="white"/>
</clipPath>
</defs>
</svg>
