<svg width="32" height="32" viewBox="0 0 32 32" fill="none" xmlns="http://www.w3.org/2000/svg">
<g clip-path="url(#clip0_2830_15950)">
<g filter="url(#filter0_di_2830_15950)">
<path d="M19.9774 19.9775L16.9349 28.345C16.8639 28.5364 16.736 28.7014 16.5684 28.818C16.4008 28.9345 16.2016 28.997 15.9974 28.997C15.7933 28.997 15.5941 28.9345 15.4265 28.818C15.2589 28.7014 15.131 28.5364 15.0599 28.345L12.0224 19.9775L3.65494 16.935C3.46357 16.864 3.29851 16.7361 3.18196 16.5685C3.0654 16.4009 3.00293 16.2016 3.00293 15.9975C3.00293 15.7934 3.0654 15.5941 3.18196 15.4265C3.29851 15.2589 3.46357 15.131 3.65494 15.06L12.0224 12.0225L15.0649 3.65501C15.136 3.46363 15.2639 3.29858 15.4315 3.18202C15.5991 3.06546 15.7983 3.00299 16.0024 3.00299C16.2066 3.00299 16.4058 3.06546 16.5734 3.18202C16.741 3.29858 16.8689 3.46363 16.9399 3.65501L19.9824 12.0225L28.3499 15.065C28.5413 15.136 28.7064 15.2639 28.8229 15.4315C28.9395 15.5991 29.002 15.7984 29.002 16.0025C29.002 16.2066 28.9395 16.4059 28.8229 16.5735C28.7064 16.7411 28.5413 16.869 28.3499 16.94L19.9774 19.9775Z" fill="#0099B9"/>
<path d="M19.9774 19.9775L16.9349 28.345C16.8639 28.5364 16.736 28.7014 16.5684 28.818C16.4008 28.9345 16.2016 28.997 15.9974 28.997C15.7933 28.997 15.5941 28.9345 15.4265 28.818C15.2589 28.7014 15.131 28.5364 15.0599 28.345L12.0224 19.9775L3.65494 16.935C3.46357 16.864 3.29851 16.7361 3.18196 16.5685C3.0654 16.4009 3.00293 16.2016 3.00293 15.9975C3.00293 15.7934 3.0654 15.5941 3.18196 15.4265C3.29851 15.2589 3.46357 15.131 3.65494 15.06L12.0224 12.0225L15.0649 3.65501C15.136 3.46363 15.2639 3.29858 15.4315 3.18202C15.5991 3.06546 15.7983 3.00299 16.0024 3.00299C16.2066 3.00299 16.4058 3.06546 16.5734 3.18202C16.741 3.29858 16.8689 3.46363 16.9399 3.65501L19.9824 12.0225L28.3499 15.065C28.5413 15.136 28.7064 15.2639 28.8229 15.4315C28.9395 15.5991 29.002 15.7984 29.002 16.0025C29.002 16.2066 28.9395 16.4059 28.8229 16.5735C28.7064 16.7411 28.5413 16.869 28.3499 16.94L19.9774 19.9775Z" stroke="#303336" stroke-width="0.5" stroke-linecap="round" stroke-linejoin="round"/>
</g>
</g>
<defs>
<filter id="filter0_di_2830_15950" x="1.75293" y="1.75299" width="28.499" height="33.494" filterUnits="userSpaceOnUse" color-interpolation-filters="sRGB">
<feFlood flood-opacity="0" result="BackgroundImageFix"/>
<feColorMatrix in="SourceAlpha" type="matrix" values="0 0 0 0 0 0 0 0 0 0 0 0 0 0 0 0 0 0 127 0" result="hardAlpha"/>
<feOffset/>
<feGaussianBlur stdDeviation="0.5"/>
<feComposite in2="hardAlpha" operator="out"/>
<feColorMatrix type="matrix" values="0 0 0 0 0.447059 0 0 0 0 0.992157 0 0 0 0 0.737255 0 0 0 0.12 0"/>
<feBlend mode="normal" in2="BackgroundImageFix" result="effect1_dropShadow_2830_15950"/>
<feBlend mode="normal" in="SourceGraphic" in2="effect1_dropShadow_2830_15950" result="shape"/>
<feColorMatrix in="SourceAlpha" type="matrix" values="0 0 0 0 0 0 0 0 0 0 0 0 0 0 0 0 0 0 127 0" result="hardAlpha"/>
<feOffset dy="6"/>
<feGaussianBlur stdDeviation="5"/>
<feComposite in2="hardAlpha" operator="arithmetic" k2="-1" k3="1"/>
<feColorMatrix type="matrix" values="0 0 0 0 1 0 0 0 0 1 0 0 0 0 1 0 0 0 0.4 0"/>
<feBlend mode="normal" in2="shape" result="effect2_innerShadow_2830_15950"/>
</filter>
<clipPath id="clip0_2830_15950">
<rect width="32" height="32" fill="white"/>
</clipPath>
</defs>
</svg>
