<svg width="78" height="78" viewBox="0 0 78 78" fill="none" xmlns="http://www.w3.org/2000/svg">
<path d="M68.2498 4.0625H48.7498C45.6086 4.0625 43.0623 6.60888 43.0623 9.75V29.25C43.0623 32.3911 45.6086 34.9375 48.7498 34.9375H68.2498C71.3909 34.9375 73.9373 32.3911 73.9373 29.25V9.75C73.9373 6.60888 71.3909 4.0625 68.2498 4.0625Z" fill="#34A853"/>
<path d="M73.8828 54.4789L62.5205 43.1166C61.4527 42.0525 60.0067 41.4551 58.4993 41.4551C56.9918 41.4551 55.5458 42.0525 54.478 43.1166L43.1157 54.4789C42.0509 55.5463 41.453 56.9924 41.453 58.5001C41.453 60.0078 42.0509 61.4539 43.1157 62.5214L54.478 73.8837C55.5453 74.9487 56.9915 75.5468 58.4993 75.5468C60.007 75.5468 61.4532 74.9487 62.5205 73.8837L73.8828 62.5214C74.9483 61.4543 75.5467 60.008 75.5467 58.5001C75.5467 56.9922 74.9483 55.5459 73.8828 54.4789Z" fill="#34A853"/>
<path d="M29.2499 4.0625H9.74988C6.60876 4.0625 4.06238 6.60888 4.06238 9.75V29.25C4.06238 32.3911 6.60876 34.9375 9.74988 34.9375H29.2499C32.391 34.9375 34.9374 32.3911 34.9374 29.25V9.75C34.9374 6.60888 32.391 4.0625 29.2499 4.0625Z" fill="#34A853"/>
<path d="M29.2498 43.0625H9.74976C6.60864 43.0625 4.06226 45.6089 4.06226 48.75V68.25C4.06226 71.3911 6.60864 73.9375 9.74976 73.9375H29.2498C32.3909 73.9375 34.9373 71.3911 34.9373 68.25V48.75C34.9373 45.6089 32.3909 43.0625 29.2498 43.0625Z" fill="#34A853"/>
</svg>
