<svg width="78" height="91" viewBox="0 0 78 91" fill="none" xmlns="http://www.w3.org/2000/svg">
<path d="M39.5629 26.9787L56.1843 36.8371C54.8534 39.4216 52.8766 41.6287 50.8001 43.6337L44.4482 47.8826L75.5911 37.7083C80.3261 49.7259 77.8321 64.1327 70.2882 74.4619C59.1955 89.6506 39.2671 95.269 21.8152 87.5561C11.5353 83.013 2.77641 73.3916 0 62.4738L38.5846 50.0701C38.6332 49.6104 38.0732 49.8759 37.8036 49.9005C36.9377 49.9782 35.873 50.271 35.0425 50.3136C13.3156 51.4317 -0.430749 28.9604 10.2613 10.2011L35.4114 24.5427C30.332 19.4569 29.1228 12.0862 33.2586 5.99125C38.9417 -2.38274 51.8918 -1.87855 56.9437 6.87721C63.7032 18.592 52.046 31.7478 39.5629 26.9787Z" fill="#34A853"/>
</svg>
