<svg width="20" height="20" viewBox="0 0 20 20" fill="none" xmlns="http://www.w3.org/2000/svg">
<g opacity="0.7">
<path d="M5.41666 10.2085C7.14255 10.2085 8.54166 8.80939 8.54166 7.0835C8.54166 5.35761 7.14255 3.9585 5.41666 3.9585C3.69077 3.9585 2.29166 5.35761 2.29166 7.0835C2.29166 8.80939 3.69077 10.2085 5.41666 10.2085Z" fill="white"/>
<path d="M8.70833 10.4918C7.53104 11.6969 6.87288 13.3154 6.87499 15.0001V15.0335H2.76666C2.30812 15.0321 1.86887 14.8488 1.54542 14.5238C1.22196 14.1988 1.04077 13.7587 1.04166 13.3001C1.04108 12.5046 1.26733 11.7253 1.69389 11.0537C2.12044 10.3822 2.72962 9.84612 3.44999 9.50846C4.01028 9.23388 4.62604 9.09134 5.24999 9.0918H5.58333C6.20728 9.09134 6.82304 9.23388 7.38333 9.50846C7.88913 9.73959 8.34059 10.0746 8.70833 10.4918Z" fill="white"/>
<path d="M13.3333 10.6252C15.5195 10.6252 17.2917 8.85296 17.2917 6.66683C17.2917 4.4807 15.5195 2.7085 13.3333 2.7085C11.1472 2.7085 9.375 4.4807 9.375 6.66683C9.375 8.85296 11.1472 10.6252 13.3333 10.6252Z" fill="white"/>
<path d="M13.3333 9.375C11.842 9.37676 10.4123 9.96996 9.35779 11.0245C8.30328 12.079 7.71008 13.5087 7.70831 15V15.1283C7.70831 15.4129 7.76436 15.6946 7.87324 15.9575C7.98213 16.2204 8.14172 16.4592 8.34291 16.6604C8.54411 16.8616 8.78296 17.0212 9.04583 17.1301C9.3087 17.239 9.59045 17.295 9.87498 17.295H16.7983C17.0828 17.295 17.3646 17.239 17.6275 17.1301C17.8903 17.0212 18.1292 16.8616 18.3304 16.6604C18.5316 16.4592 18.6912 16.2204 18.8001 15.9575C18.9089 15.6946 18.965 15.4129 18.965 15.1283V15C18.9632 13.5075 18.3691 12.0768 17.3131 11.0221C16.2572 9.96742 14.8258 9.375 13.3333 9.375Z" fill="white"/>
</g>
</svg>
