<svg width="20" height="20" viewBox="0 0 20 20" fill="none" xmlns="http://www.w3.org/2000/svg">
<g opacity="0.7">
<path fill-rule="evenodd" clip-rule="evenodd" d="M10.5703 3.98799C10.5844 4.03174 10.6234 4.06025 10.6695 4.06025L12.2039 4.05713C12.3047 4.05713 12.3469 4.18643 12.2652 4.2458L11.0223 5.14502C10.9852 5.17197 10.9699 5.21807 10.9844 5.26182L11.4613 6.72002C11.4926 6.81572 11.382 6.8958 11.3008 6.83643L10.0613 5.93213C10.0242 5.90518 9.97578 5.90518 9.93867 5.93213L8.69922 6.83643C8.61797 6.8958 8.50742 6.81533 8.53867 6.72002L9.01563 5.26182C9.03008 5.21807 9.01484 5.17197 8.97773 5.14502L7.73477 4.2458C7.65312 4.18682 7.69531 4.05713 7.79609 4.05713L9.33047 4.06025C9.37656 4.06025 9.41562 4.03174 9.42969 3.98799L9.90117 2.52783C9.93203 2.43174 10.0684 2.43174 10.0992 2.52783L10.5707 3.98799H10.5703ZM8.25703 2.16494L7.6207 1.52861C7.43906 1.34697 7.16289 1.62314 7.34453 1.80479L7.98086 2.44111C8.1625 2.62275 8.43867 2.34658 8.25703 2.16494ZM12.0191 2.44111L12.6555 1.80479C12.8371 1.62314 12.5609 1.34697 12.3793 1.52861L11.743 2.16494C11.5613 2.34658 11.8375 2.62275 12.0191 2.44111ZM10.1953 1.52393C10.1953 1.78096 9.80469 1.78096 9.80469 1.52393V0.623926C9.80469 0.366895 10.1953 0.366895 10.1953 0.623926V1.52393ZM1.67227 19.5692C1.41523 19.5692 1.41523 19.1786 1.67227 19.1786H18.3281C18.5852 19.1786 18.5852 19.5692 18.3281 19.5692H1.67227ZM3.15625 10.3817H5.76172C6.04414 10.3817 6.27461 10.6122 6.27461 10.8946V18.788H2.64297V10.8946C2.64297 10.6122 2.87344 10.3817 3.15586 10.3817H3.15625ZM14.2387 11.9208H16.8441C17.1266 11.9208 17.357 12.1513 17.357 12.4337V18.788H13.7254V12.4337C13.7254 12.1513 13.9559 11.9208 14.2383 11.9208H14.2387ZM8.69766 8.36377H11.3031C11.5855 8.36377 11.816 8.59424 11.816 8.87666V18.788H8.18438V8.87666C8.18438 8.59424 8.41484 8.36377 8.69727 8.36377H8.69766Z" fill="white"/>
</g>
</svg>
