<svg width="91" height="91" viewBox="0 0 91 91" fill="none" xmlns="http://www.w3.org/2000/svg">
<g clip-path="url(#clip0_3076_7581)">
<path d="M67.6376 21.4939C69.2524 20.9661 70.5114 19.5615 70.7544 17.7665C70.9168 16.5672 70.596 15.3526 69.8628 14.3898C69.1296 13.427 68.0439 12.7949 66.8447 12.6325C65.6454 12.4702 64.4308 12.7909 63.468 13.5242C62.5052 14.2574 61.8731 15.343 61.7107 16.5423C61.4644 18.3622 62.3279 20.0667 63.777 20.9966C60.6765 30.4441 56.955 37.2838 46.5288 37.4411C46.5288 37.4411 47.4181 51.5717 60.288 53.3138C73.1578 55.0559 76.3061 41.611 76.3061 41.611C65.7925 40.7318 66.6871 27.4879 67.6376 21.4939V21.4939Z" fill="#FFBB3E"/>
<path d="M30.5063 16.4678C29.0899 15.5297 28.2496 13.841 28.4926 12.0459C28.6549 10.8466 29.287 9.76099 30.2498 9.02776C31.2126 8.29454 32.4272 7.97382 33.6265 8.13616C34.8258 8.29849 35.9114 8.93059 36.6447 9.89339C37.3779 10.8562 37.6986 12.0708 37.5363 13.2701C37.2899 15.09 36.0043 16.5036 34.3602 17.0148C34.8374 26.9466 36.6067 34.5295 46.6158 37.453C46.6158 37.453 42.0018 50.8386 29.132 49.0965C16.2621 47.3544 16.8069 33.5635 16.8069 33.5635C27.1705 35.504 29.8291 22.4988 30.5063 16.4678V16.4678Z" fill="#FFBB3E"/>
<path d="M60.1141 53.2902C60.17 53.2978 60.225 53.3116 60.2809 53.3191C63.8276 53.7992 66.6327 53.1226 68.8353 51.8964L60.1141 53.2902Z" fill="#F26522"/>
<path d="M83.4082 20.4976C81.3777 19.9381 79.1359 21.6398 78.4108 24.2867C77.9593 25.9397 78.2 27.5725 78.9388 28.7035L76.6115 34.682C76.6115 34.682 72.3553 48.9763 60.4494 50.2995C50.9323 51.3579 49.8778 34.0551 49.7749 28.7407C51.6442 28.1082 53.0992 26.4709 53.3826 24.3776C53.7803 21.4397 51.7234 18.7387 48.7854 18.3411C45.8474 17.9434 43.1465 20.0003 42.7488 22.9382C42.4638 25.0439 43.4473 27.0303 45.1139 28.1287C43.7788 33.1789 38.7535 49.0895 29.0458 46.0423C19.1931 42.9439 17.0888 25.3599 16.6957 20.6008C18.0415 19.7709 18.9556 18.1109 18.9619 16.1953C18.9674 13.4446 17.093 11.2174 14.7785 11.2141C12.4639 11.2107 10.5877 13.4362 10.5831 16.1807C10.5783 18.1788 11.5722 19.9009 13.0017 20.6953L14.2578 70.8528C14.2578 70.8528 20.415 77.2334 40.4466 79.9449C60.4781 82.6565 68.11 78.1424 68.11 78.1424L82.6918 29.9959C84.0621 29.4982 85.2726 28.1251 85.7716 26.3078C86.5039 23.6554 85.445 21.058 83.4082 20.4976V20.4976Z" fill="#F26522"/>
<path d="M42.3875 67.475C45.7287 67.9273 48.8743 65.0653 49.4134 61.0826C49.9525 57.0999 47.681 53.5046 44.3397 53.0523C40.9985 52.6 37.8529 55.462 37.3138 59.4447C36.7747 63.4275 39.0462 67.0227 42.3875 67.475Z" fill="#1B3A4B"/>
<path d="M44.0985 54.835C44.2992 55.1278 44.4456 55.6347 43.8723 56.5058C43.299 57.377 40.7183 58.3117 40.2428 58.5067C39.7665 58.7078 39.4906 58.5503 39.3682 58.4262C38.7866 57.8162 39.1948 56.6697 39.7147 56.0063C40.8326 54.57 42.9697 53.2211 44.0985 54.835V54.835Z" fill="#006466"/>
<path d="M42.5525 62.8926C41.8246 63.1293 39.447 63.8258 40.0256 65.1122C40.3653 65.8729 41.2256 66.293 42.0467 66.4421C42.8677 66.5912 43.7167 66.4404 44.501 66.1607C48.2231 64.8303 49.1433 60.1351 48.515 59.6832C47.8698 59.2164 47.2674 60.1152 46.8517 60.4764C45.5902 61.5549 44.1296 62.3758 42.5525 62.8926V62.8926Z" fill="#144552"/>
<path d="M77.4861 58.874C79.1806 53.6448 75.7597 51.8155 75.7597 51.8155C75.7597 51.8155 73.4938 51.0787 71.5842 56.9619C69.6755 62.8389 71.9414 63.5757 71.9414 63.5757C71.9414 63.5757 75.7853 64.1024 77.4861 58.874V58.874Z" fill="#1B3A4B"/>
<path d="M76.5427 53.7878C77.2344 55.0327 76.0082 56.5681 74.2366 57.4605C73.7137 57.725 73.097 57.515 73.0408 57.2291C72.8859 56.4111 73.1179 55.5381 73.5675 54.8336C74.9038 52.7184 76.1915 53.1584 76.5427 53.7878V53.7878Z" fill="#006466"/>
<path d="M10.177 49.9273C9.9266 44.4412 13.7178 43.5818 13.7178 43.5818C13.7178 43.5818 16.098 43.4739 16.3748 49.653C16.6525 55.826 14.2723 55.9339 14.2723 55.9339C14.2723 55.9339 10.4204 55.4188 10.177 49.9273V49.9273Z" fill="#1B3A4B"/>
<path d="M14.5771 45.5511C15.3254 46.2849 14.8736 47.0524 14.1698 47.5327C13.3672 48.0882 12.7239 48.7285 12.0151 49.3852C11.9068 49.4844 11.7844 49.5944 11.6311 49.6052C11.337 49.6287 11.1467 49.3056 11.0914 49.0135C10.9302 48.1947 11.1044 47.2822 11.5994 46.6155C13.0082 44.7126 14.2869 45.2652 14.5771 45.5511V45.5511Z" fill="#006466"/>
<path d="M65.5407 62.5448C64.7817 64.9278 62.5956 66.3586 60.6488 65.7409C58.7021 65.1232 58.7104 63.0054 59.4695 60.6224C60.2285 58.2393 61.4443 56.5001 63.3848 57.1169C65.3316 57.7347 66.2989 60.1679 65.5407 62.5448V62.5448Z" fill="#4D194D"/>
<path d="M22.3347 56.6959C22.4329 59.195 24.1599 61.1555 26.2008 61.0776C28.2418 60.9996 28.7967 58.9558 28.6986 56.4568C28.6004 53.9577 27.8907 51.9578 25.856 52.0366C23.8213 52.1153 22.242 54.2039 22.3347 56.6959Z" fill="#4D194D"/>
<path d="M25.4434 55.4596C24.921 55.9076 23.6767 56.7828 23.3913 55.9472C23.0018 54.8065 23.9595 53.2916 24.8766 52.8718C25.7936 52.452 26.4259 52.9677 26.4792 53.4619C26.5396 54.09 25.9094 55.0546 25.4434 55.4596V55.4596Z" fill="#FFA8A4" fill-opacity="0.1"/>
<path d="M60.5747 61.8025C59.9724 61.6261 60.1908 59.4988 62.0683 58.0578C62.9648 57.3695 63.9675 58.4666 63.5094 59.7013C63.0721 60.8755 61.6754 62.1286 60.5747 61.8025V61.8025Z" fill="#FFA8A4" fill-opacity="0.1"/>
<path d="M70.3012 70.1787C66.3284 71.5384 57.1222 75.346 41.3641 73.213C25.606 71.0799 17.7434 64.9619 14.2751 62.5948C14.2751 62.5948 12.843 63.1284 12.7421 63.8737L11.9677 69.5943C11.8643 70.3583 12.173 71.1149 12.7784 71.5953C15.4533 73.7031 23.7624 78.9519 40.2908 81.1892C56.8191 83.4265 66.2246 80.5756 69.3636 79.2548C69.7126 79.108 70.0172 78.8728 70.2476 78.5723C70.4779 78.2718 70.626 77.9165 70.6771 77.5414L71.4515 71.8208C71.5399 71.0737 70.3012 70.1787 70.3012 70.1787V70.1787Z" fill="#F26522"/>
<path d="M26.0395 72.1758C27.7325 72.7529 28.2402 72.9734 27.9911 73.9264C27.4907 75.8005 23.5955 74.8115 21.337 73.8796C16.6708 71.9513 15.871 70.4768 16.0333 69.278C16.1821 68.1786 17.0445 68.1625 18.2866 68.7987C19.7709 69.5626 22.0547 70.8205 26.0395 72.1758V72.1758Z" fill="#FF9969"/>
<path d="M70.1314 71.4334C70.1314 71.4334 59.0505 75.8665 41.3296 73.4677C23.6087 71.069 14.1052 63.8496 14.1052 63.8496" stroke="#FFBB3E" stroke-width="3.2092" stroke-miterlimit="10" stroke-linecap="round"/>
<path d="M23.3461 33.0569C26.97 31.1439 29.319 27.1545 30.3857 20.4424C30.4805 19.8354 30.6788 19.6788 31.0131 19.6861C31.5486 19.7017 31.5708 20.1917 31.5184 20.5325C30.3856 27.7795 28.8455 32.1947 24.8344 34.2577C24.6375 34.3576 23.2458 34.9662 22.7723 34.3518C22.2059 33.63 23.1147 33.1774 23.3461 33.0569V33.0569Z" fill="#F26522"/>
<path d="M29.2322 12.3292C29.2788 11.1907 29.8138 9.20113 32.8886 8.68122C33.7881 8.531 34.2651 9.02568 34.3199 9.36833C34.4574 10.2219 33.6932 10.4473 33.3497 10.5083C30.9833 10.9344 30.7185 12.0497 30.1551 12.7072C29.5918 13.3646 29.2233 12.6759 29.2322 12.3292V12.3292Z" fill="#F26522"/>
<path d="M55.3809 35.8753C58.7275 33.6275 61.11 30.9329 63.3274 24.3639C63.5262 23.7836 63.722 23.6457 64.0433 23.7018C64.5695 23.7857 64.528 24.2798 64.4267 24.6076C62.3474 31.6507 61.0203 33.5583 56.7845 37.1406C56.3062 37.5439 55.2374 37.823 54.7307 37.2674C54.2732 36.769 54.9628 36.1602 55.3809 35.8753V35.8753Z" fill="#F26522"/>
<path d="M62.4304 16.88C62.477 15.7415 63.0119 13.7519 66.0868 13.232C66.9863 13.0818 67.4633 13.5765 67.5181 13.9191C67.6556 14.7726 66.8913 14.9981 66.5478 15.0591C64.1815 15.4852 63.9167 16.6005 63.3533 17.258C62.7961 17.9163 62.4214 17.2267 62.4304 16.88V16.88Z" fill="#F26522"/>
<path d="M24.362 47.1409C17.5875 42.8906 16.6193 34.0625 15.9908 30.2013C15.9081 29.6904 16.0457 29.2347 16.5566 29.152C17.0675 29.0694 17.3165 29.4257 17.4054 29.9374C17.8612 32.7379 19.8319 42.1507 26.0641 45.594C26.5171 45.8451 27.2011 46.3994 26.6923 47.1211C26.3571 47.5881 25.452 47.8261 24.362 47.1409V47.1409Z" fill="#FF9969"/>
<path d="M16.567 16.3646C16.3167 15.597 16.2663 14.8945 14.4787 13.8492C14.0273 13.5857 13.7702 13.1018 13.9679 12.6225C14.1656 12.1433 14.713 11.8379 15.4167 12.0596C17.7037 12.7803 17.891 15.2282 17.8786 16.0678C17.8641 16.8754 16.8235 17.1331 16.567 16.3646V16.3646Z" fill="#FF9969"/>
<path d="M64.9094 52.63C72.57 50.3336 75.8504 42.0806 77.4828 38.5254C77.6983 38.0549 77.6868 37.579 77.2163 37.3635C76.7457 37.148 76.4109 37.4253 76.1892 37.8949C75.0053 40.4735 70.6031 49.0237 63.6798 50.6862C63.1763 50.8078 62.3695 51.1603 62.6682 51.9914C62.8672 52.5306 63.6764 53.0007 64.9094 52.63Z" fill="#FF9969"/>
<path d="M80.6057 25.0332C81.051 24.3597 81.2864 23.6958 83.2876 23.1634C83.7928 23.0294 84.1693 22.6313 84.1061 22.1167C84.0429 21.6022 83.5965 21.1622 82.8591 21.1889C80.4628 21.2757 79.6315 23.5857 79.4203 24.3983C79.2195 25.1808 80.1603 25.7066 80.6057 25.0332V25.0332Z" fill="#FF9969"/>
<path d="M45.1602 23.3467C45.6441 22.6216 46.4525 21.6494 48.6808 21.4957C49.5367 21.4344 49.8277 21.1069 49.8271 20.5503C49.8319 19.3934 48.4048 19.2825 47.6164 19.3592C44.9891 19.6107 44.1178 21.7951 43.8911 22.6753C43.6704 23.5119 44.6824 24.0727 45.1602 23.3467V23.3467Z" fill="#FF9969"/>
</g>
<defs>
<clipPath id="clip0_3076_7581">
<rect width="80.23" height="80.23" fill="white" transform="translate(10.762) rotate(7.70883)"/>
</clipPath>
</defs>
</svg>
