<svg width="42" height="42" viewBox="0 0 42 42" fill="none" xmlns="http://www.w3.org/2000/svg">
<path fill-rule="evenodd" clip-rule="evenodd" d="M4.81244 17.582C4.81244 17.582 7.79278 20.7925 9.43743 20.207C12.5094 19.1134 14.0624 10.582 14.0624 10.582C14.0624 10.582 17.7296 18.457 20.9999 18.457C24.2703 18.457 27.9374 10.582 27.9374 10.582C27.9374 10.582 29.4905 19.1134 32.5624 20.207C34.2071 20.7925 37.1874 17.582 37.1874 17.582L35.7722 29.6311C35.7023 30.2253 35.1899 30.8729 34.6226 31.063C25.4663 34.1323 16.387 34.0454 7.37857 31.0595C6.81066 30.8713 6.29752 30.2256 6.22773 29.6314L4.81244 17.582Z" fill="#F0C419"/>
<path fill-rule="evenodd" clip-rule="evenodd" d="M6.125 16.1875C6.125 16.6516 5.94063 17.0967 5.61244 17.4249C5.28425 17.7531 4.83913 17.9375 4.375 17.9375C3.91087 17.9375 3.46575 17.7531 3.13756 17.4249C2.80937 17.0967 2.625 16.6516 2.625 16.1875C2.625 15.7234 2.80937 15.2783 3.13756 14.9501C3.46575 14.6219 3.91087 14.4375 4.375 14.4375C4.83913 14.4375 5.28425 14.6219 5.61244 14.9501C5.94063 15.2783 6.125 15.7234 6.125 16.1875Z" fill="#00A550"/>
<path fill-rule="evenodd" clip-rule="evenodd" d="M39.3751 16.1875C39.3751 16.6516 39.1907 17.0967 38.8625 17.4249C38.5343 17.7531 38.0892 17.9375 37.6251 17.9375C37.1609 17.9375 36.7158 17.7531 36.3876 17.4249C36.0594 17.0967 35.8751 16.6516 35.8751 16.1875C35.8751 15.7234 36.0594 15.2783 36.3876 14.9501C36.7158 14.6219 37.1609 14.4375 37.6251 14.4375C38.0892 14.4375 38.5343 14.6219 38.8625 14.9501C39.1907 15.2783 39.3751 15.7234 39.3751 16.1875Z" fill="#00A550"/>
<path fill-rule="evenodd" clip-rule="evenodd" d="M15.7501 9.1875C15.7501 9.65163 15.5657 10.0967 15.2375 10.4249C14.9093 10.7531 14.4642 10.9375 14.0001 10.9375C13.5359 10.9375 13.0908 10.7531 12.7626 10.4249C12.4344 10.0967 12.2501 9.65163 12.2501 9.1875C12.2501 8.72337 12.4344 8.27825 12.7626 7.95006C13.0908 7.62187 13.5359 7.4375 14.0001 7.4375C14.4642 7.4375 14.9093 7.62187 15.2375 7.95006C15.5657 8.27825 15.7501 8.72337 15.7501 9.1875Z" fill="#00A550"/>
<path fill-rule="evenodd" clip-rule="evenodd" d="M29.75 9.1875C29.75 9.65163 29.5656 10.0967 29.2374 10.4249C28.9092 10.7531 28.4641 10.9375 28 10.9375C27.5359 10.9375 27.0908 10.7531 26.7626 10.4249C26.4344 10.0967 26.25 9.65163 26.25 9.1875C26.25 8.72337 26.4344 8.27825 26.7626 7.95006C27.0908 7.62187 27.5359 7.4375 28 7.4375C28.4641 7.4375 28.9092 7.62187 29.2374 7.95006C29.5656 8.27825 29.75 8.72337 29.75 9.1875Z" fill="#00A550"/>
<path fill-rule="evenodd" clip-rule="evenodd" d="M5.96954 27.4395L6.22759 29.6304C6.29742 30.2246 6.81155 30.8708 7.37945 31.0591C16.3879 34.0453 25.466 34.1318 34.6224 31.0626C35.1896 30.8724 35.7027 30.2247 35.7725 29.6305L36.0289 27.443C35.9547 27.4823 35.8785 27.5164 35.8016 27.5404C25.8518 30.6414 15.9868 30.5533 6.19854 27.5369C6.12066 27.5129 6.04457 27.4792 5.96954 27.4395Z" fill="#F29C1F"/>
</svg>
