<svg width="20" height="20" viewBox="0 0 20 20" fill="none" xmlns="http://www.w3.org/2000/svg">
<path d="M15.4167 1.0415H4.58336C4.4969 1.04155 4.41139 1.05952 4.33222 1.09428C4.25306 1.12905 4.18197 1.17984 4.12343 1.24347C4.06489 1.3071 4.02017 1.38217 3.99211 1.46395C3.96405 1.54572 3.95325 1.63243 3.96039 1.7186L4.37868 6.73893C4.44206 8.203 5.05669 9.58897 6.09927 10.6188C7.14186 11.6486 8.53528 12.2461 10 12.2915C11.4648 12.2461 12.8582 11.6486 13.9008 10.6188C14.9434 9.58897 15.558 8.203 15.6214 6.73893L16.0397 1.7186C16.0468 1.63243 16.036 1.54572 16.008 1.46394C15.9799 1.38216 15.9352 1.30708 15.8766 1.24346C15.8181 1.17983 15.747 1.12903 15.6678 1.09427C15.5887 1.05951 15.5032 1.04154 15.4167 1.0415Z" fill="white"/>
<path d="M14.9495 16.2054C14.853 15.9149 14.6673 15.6622 14.419 15.4833C14.1706 15.3043 13.8722 15.2082 13.5661 15.2085H6.43392C6.1278 15.2082 5.82937 15.3043 5.58102 15.4833C5.33266 15.6622 5.14702 15.9149 5.05046 16.2054L4.77296 17.0387C4.69983 17.2579 4.67983 17.4914 4.71462 17.7198C4.74941 17.9483 4.83799 18.1652 4.97307 18.3526C5.10814 18.5401 5.28583 18.6928 5.4915 18.7982C5.69718 18.9035 5.92493 18.9585 6.15601 18.9585H13.844C14.0751 18.9585 14.3028 18.9035 14.5085 18.7982C14.7142 18.6928 14.8919 18.5401 15.0269 18.3527C15.162 18.1652 15.2506 17.9483 15.2854 17.7198C15.3202 17.4914 15.3002 17.2579 15.2271 17.0387L14.9495 16.2054Z" fill="white"/>
<path d="M15.8334 8.9585H15.0749C14.9091 8.9585 14.7502 8.89265 14.6329 8.77544C14.5157 8.65823 14.4499 8.49926 14.4499 8.3335C14.4499 8.16774 14.5157 8.00876 14.6329 7.89155C14.7502 7.77434 14.9091 7.7085 15.0749 7.7085H15.8334C16.3304 7.70788 16.807 7.51014 17.1585 7.15864C17.51 6.80715 17.7077 6.33059 17.7084 5.8335V4.16683C17.7077 4.11178 17.6855 4.05916 17.6466 4.02023C17.6077 3.9813 17.5551 3.95915 17.5 3.9585H15.4167C15.2509 3.9585 15.092 3.89265 14.9747 3.77544C14.8575 3.65823 14.7917 3.49926 14.7917 3.3335C14.7917 3.16774 14.8575 3.00876 14.9747 2.89155C15.092 2.77434 15.2509 2.7085 15.4167 2.7085H17.5C17.8867 2.70897 18.2573 2.86276 18.5307 3.13615C18.8041 3.40954 18.9579 3.7802 18.9584 4.16683V5.8335C18.9574 6.662 18.6278 7.45629 18.042 8.04213C17.4561 8.62797 16.6619 8.95752 15.8334 8.9585Z" fill="white"/>
<path d="M4.92515 8.9585H4.16669C3.33818 8.95752 2.54389 8.62797 1.95805 8.04213C1.37221 7.45629 1.04266 6.662 1.04169 5.8335V4.16683C1.04216 3.7802 1.19595 3.40954 1.46934 3.13615C1.74273 2.86276 2.11339 2.70897 2.50002 2.7085H4.58335C4.74911 2.7085 4.90809 2.77434 5.0253 2.89155C5.14251 3.00876 5.20835 3.16774 5.20835 3.3335C5.20835 3.49926 5.14251 3.65823 5.0253 3.77544C4.90809 3.89265 4.74911 3.9585 4.58335 3.9585H2.50002C2.44497 3.95915 2.39235 3.9813 2.35342 4.02023C2.31449 4.05916 2.29234 4.11178 2.29169 4.16683V5.8335C2.2923 6.33059 2.49004 6.80715 2.84154 7.15864C3.19304 7.51014 3.66959 7.70788 4.16669 7.7085H4.92515C5.09091 7.7085 5.24989 7.77434 5.3671 7.89155C5.48431 8.00876 5.55015 8.16774 5.55015 8.3335C5.55015 8.49926 5.48431 8.65823 5.3671 8.77544C5.24989 8.89265 5.09091 8.9585 4.92515 8.9585Z" fill="white"/>
<path d="M13.7557 16.2061C13.0803 15.5896 12.5653 14.8178 12.2555 13.9575C11.8354 12.7413 11.8362 11.4191 12.2579 10.2034C12.2902 10.1093 12.2996 10.0088 12.2852 9.91031C12.2709 9.81182 12.2332 9.71817 12.1754 9.63715C12.1176 9.55613 12.0412 9.49008 11.9528 9.44449C11.8643 9.39889 11.7662 9.37507 11.6667 9.375H8.33335C8.23382 9.37507 8.13574 9.39889 8.04726 9.44449C7.95878 9.49008 7.88246 9.55613 7.82465 9.63715C7.76683 9.71817 7.72918 9.81182 7.71482 9.91031C7.70047 10.0088 7.70983 10.1093 7.74212 10.2034C8.16362 11.4192 8.16448 12.7412 7.74457 13.9575C7.43429 14.8176 6.9194 15.5893 6.24432 16.206C6.15152 16.2911 6.08659 16.4023 6.05804 16.5249C6.02948 16.6475 6.03863 16.7759 6.08428 16.8933C6.12993 17.0106 6.20996 17.1114 6.31388 17.1825C6.4178 17.2536 6.54077 17.2917 6.66668 17.2917H13.3333C13.4593 17.2917 13.5823 17.2537 13.6862 17.1826C13.7902 17.1115 13.8702 17.0107 13.9159 16.8933C13.9615 16.776 13.9707 16.6476 13.9421 16.5249C13.9135 16.4023 13.8485 16.2911 13.7557 16.2061Z" fill="white"/>
</svg>
